<?xml version="1.0" encoding="UTF-8" standalone="no"?>
<svg
   xmlns:dc="http://purl.org/dc/elements/1.1/"
   xmlns:cc="http://creativecommons.org/ns#"
   xmlns:rdf="http://www.w3.org/1999/02/22-rdf-syntax-ns#"
   xmlns:svg="http://www.w3.org/2000/svg"
   xmlns="http://www.w3.org/2000/svg"
   viewBox="0 0 451.11893 55.349335"
   height="55.349335"
   width="451.11893"
   xml:space="preserve"
   id="svg2"
   version="1.1"><metadata
     id="metadata8"><rdf:RDF><cc:Work
         rdf:about=""><dc:format>image/svg+xml</dc:format><dc:type
           rdf:resource="http://purl.org/dc/dcmitype/StillImage" /></cc:Work></rdf:RDF></metadata><defs
     id="defs6"><clipPath
       id="clipPath14"
       clipPathUnits="userSpaceOnUse"><path
         id="path12"
         d="M 0,0 H 381.721 V 88.7998 H 0 Z" /></clipPath><clipPath
       id="clipPath22"
       clipPathUnits="userSpaceOnUse"><path
         id="path20"
         d="M 0,88.8 H 381.721 V 0 H 0 Z" /></clipPath></defs><g
     clip-path="url(#clipPath14)"
     transform="matrix(1.3333333,0,0,-1.3333333,-30.379733,86.771467)"
     id="g10"><g
       id="g16"><g
         clip-path="url(#clipPath22)"
         id="g18"><g
           transform="translate(44.2383,61.1646)"
           id="g24"><path
             id="path26"
             style="fill:#2e3e75;fill-opacity:1;fill-rule:nonzero;stroke:none"
             d="M 0,0 C -0.21,-0.008 -0.519,-0.051 -0.925,-0.132 -1.33,-0.213 -1.662,-0.334 -1.918,-0.495 -2.173,-0.663 -2.35,-1.01 -2.448,-1.538 -2.545,-2.065 -2.595,-2.71 -2.595,-3.47 v -6.778 c 0,-0.863 -0.183,-1.614 -0.552,-2.25 -0.369,-0.637 -0.854,-1.161 -1.455,-1.571 -0.594,-0.395 -1.22,-0.679 -1.877,-0.85 -0.66,-0.173 -1.289,-0.26 -1.89,-0.26 -0.963,0 -1.82,0.124 -2.571,0.368 -0.752,0.246 -1.385,0.577 -1.896,0.995 -0.504,0.416 -0.884,0.895 -1.139,1.433 -0.256,0.539 -0.384,1.1 -0.384,1.686 v 9.214 c 0,0.256 -0.043,0.47 -0.129,0.643 -0.087,0.171 -0.263,0.331 -0.526,0.478 -0.187,0.102 -0.428,0.184 -0.721,0.246 -0.294,0.063 -0.536,0.1 -0.723,0.116 v 0.778 h 6.667 V 0 c -0.211,-0.008 -0.476,-0.041 -0.794,-0.1 -0.321,-0.058 -0.556,-0.113 -0.707,-0.164 -0.255,-0.089 -0.427,-0.236 -0.513,-0.44 -0.085,-0.203 -0.13,-0.426 -0.13,-0.669 v -8.603 c 0,-0.418 0.047,-0.854 0.142,-1.311 0.094,-0.457 0.28,-0.883 0.559,-1.278 0.294,-0.403 0.691,-0.731 1.195,-0.988 0.505,-0.257 1.195,-0.384 2.074,-0.384 0.828,0 1.522,0.127 2.082,0.384 0.561,0.257 1.002,0.593 1.327,1.01 0.308,0.395 0.526,0.808 0.654,1.239 0.129,0.432 0.191,0.867 0.191,1.306 v 6.387 c 0,0.812 -0.06,1.476 -0.181,1.992 -0.119,0.515 -0.296,0.853 -0.53,1.016 -0.263,0.183 -0.623,0.324 -1.076,0.427 -0.455,0.102 -0.804,0.16 -1.044,0.176 v 0.778 l 6.542,0 z" /></g><g
           transform="translate(44.2383,61.1646)"
           id="g28"><path
             id="path30"
             style="fill:none;stroke:#2e3e75;stroke-width:0.09;stroke-linecap:butt;stroke-linejoin:miter;stroke-miterlimit:4;stroke-dasharray:none;stroke-opacity:1"
             d="M 0,0 C -0.21,-0.008 -0.519,-0.051 -0.925,-0.132 -1.33,-0.213 -1.662,-0.334 -1.918,-0.495 -2.173,-0.663 -2.35,-1.01 -2.448,-1.538 -2.545,-2.065 -2.595,-2.71 -2.595,-3.47 v -6.778 c 0,-0.863 -0.183,-1.614 -0.552,-2.25 -0.369,-0.637 -0.854,-1.161 -1.455,-1.571 -0.594,-0.395 -1.22,-0.679 -1.877,-0.85 -0.66,-0.173 -1.289,-0.26 -1.89,-0.26 -0.963,0 -1.82,0.124 -2.571,0.368 -0.752,0.246 -1.385,0.577 -1.896,0.995 -0.504,0.416 -0.884,0.895 -1.139,1.433 -0.256,0.539 -0.384,1.1 -0.384,1.686 v 9.214 c 0,0.256 -0.043,0.47 -0.129,0.643 -0.087,0.171 -0.263,0.331 -0.526,0.478 -0.187,0.102 -0.428,0.184 -0.721,0.246 -0.294,0.063 -0.536,0.1 -0.723,0.116 v 0.778 h 6.667 V 0 c -0.211,-0.008 -0.476,-0.041 -0.794,-0.1 -0.321,-0.058 -0.556,-0.113 -0.707,-0.164 -0.255,-0.089 -0.427,-0.236 -0.513,-0.44 -0.085,-0.203 -0.13,-0.426 -0.13,-0.669 v -8.603 c 0,-0.418 0.047,-0.854 0.142,-1.311 0.094,-0.457 0.28,-0.883 0.559,-1.278 0.294,-0.403 0.691,-0.731 1.195,-0.988 0.505,-0.257 1.195,-0.384 2.074,-0.384 0.828,0 1.522,0.127 2.082,0.384 0.561,0.257 1.002,0.593 1.327,1.01 0.308,0.395 0.526,0.808 0.654,1.239 0.129,0.432 0.191,0.867 0.191,1.306 v 6.387 c 0,0.812 -0.06,1.476 -0.181,1.992 -0.119,0.515 -0.296,0.853 -0.53,1.016 -0.263,0.183 -0.623,0.324 -1.076,0.427 -0.455,0.102 -0.804,0.16 -1.044,0.176 v 0.778 l 6.542,0 z" /></g><g
           transform="translate(52.6377,45.9858)"
           id="g32"><path
             id="path34"
             style="fill:#007bae;fill-opacity:1;fill-rule:nonzero;stroke:none"
             d="m 0,0 c -0.955,0 -1.869,0.184 -2.744,0.55 -0.877,0.366 -1.652,0.894 -2.327,1.582 -0.67,0.689 -1.203,1.529 -1.601,2.522 -0.398,0.993 -0.598,2.113 -0.598,3.358 0,1.246 0.195,2.377 0.585,3.39 0.392,1.015 0.933,1.889 1.623,2.621 0.685,0.727 1.492,1.286 2.423,1.682 0.933,0.396 1.928,0.593 2.987,0.593 0.789,0 1.503,-0.095 2.142,-0.285 0.639,-0.19 1.248,-0.458 1.825,-0.802 l 0.464,0.746 h 0.902 l 0.1,-5.556 H 4.856 c -0.12,0.542 -0.299,1.129 -0.541,1.762 -0.241,0.634 -0.522,1.17 -0.845,1.609 -0.36,0.499 -0.788,0.887 -1.284,1.171 -0.497,0.281 -1.063,0.422 -1.702,0.422 -0.728,0 -1.406,-0.157 -2.034,-0.472 -0.627,-0.316 -1.17,-0.782 -1.627,-1.397 -0.435,-0.593 -0.778,-1.347 -1.024,-2.264 -0.249,-0.916 -0.372,-1.938 -0.372,-3.066 0,-0.997 0.128,-1.91 0.387,-2.743 0.26,-0.831 0.629,-1.563 1.11,-2.192 0.481,-0.623 1.051,-1.11 1.707,-1.462 0.658,-0.352 1.391,-0.527 2.204,-0.527 0.607,0 1.169,0.093 1.679,0.28 0.51,0.186 0.954,0.434 1.328,0.741 0.377,0.321 0.707,0.688 0.993,1.098 0.285,0.41 0.518,0.856 0.698,1.34 L 6.379,4.306 C 5.732,2.76 4.878,1.657 3.811,0.995 2.742,0.332 1.473,0 0,0" /></g><g
           transform="translate(52.6377,45.9858)"
           id="g36"><path
             id="path38"
             style="fill:none;stroke:#007bae;stroke-width:0.09;stroke-linecap:butt;stroke-linejoin:miter;stroke-miterlimit:4;stroke-dasharray:none;stroke-opacity:1"
             d="m 0,0 c -0.955,0 -1.869,0.184 -2.744,0.55 -0.877,0.366 -1.652,0.894 -2.327,1.582 -0.67,0.689 -1.203,1.529 -1.601,2.522 -0.398,0.993 -0.598,2.113 -0.598,3.358 0,1.246 0.195,2.377 0.585,3.39 0.392,1.015 0.933,1.889 1.623,2.621 0.685,0.727 1.492,1.286 2.423,1.682 0.933,0.396 1.928,0.593 2.987,0.593 0.789,0 1.503,-0.095 2.142,-0.285 0.639,-0.19 1.248,-0.458 1.825,-0.802 l 0.464,0.746 h 0.902 l 0.1,-5.556 H 4.856 c -0.12,0.542 -0.299,1.129 -0.541,1.762 -0.241,0.634 -0.522,1.17 -0.845,1.609 -0.36,0.499 -0.788,0.887 -1.284,1.171 -0.497,0.281 -1.063,0.422 -1.702,0.422 -0.728,0 -1.406,-0.157 -2.034,-0.472 -0.627,-0.316 -1.17,-0.782 -1.627,-1.397 -0.435,-0.593 -0.778,-1.347 -1.024,-2.264 -0.249,-0.916 -0.372,-1.938 -0.372,-3.066 0,-0.997 0.128,-1.91 0.387,-2.743 0.26,-0.831 0.629,-1.563 1.11,-2.192 0.481,-0.623 1.051,-1.11 1.707,-1.462 0.658,-0.352 1.391,-0.527 2.204,-0.527 0.607,0 1.169,0.093 1.679,0.28 0.51,0.186 0.954,0.434 1.328,0.741 0.377,0.321 0.707,0.688 0.993,1.098 0.285,0.41 0.518,0.856 0.698,1.34 L 6.379,4.306 C 5.732,2.76 4.878,1.657 3.811,0.995 2.742,0.332 1.473,0 0,0 Z" /></g><g
           transform="translate(35.4375,25.7324)"
           id="g40"><path
             id="path42"
             style="fill:#2e3e75;fill-opacity:1;fill-rule:nonzero;stroke:none"
             d="M 0,0 C -0.955,0 -1.869,0.182 -2.744,0.549 -3.62,0.915 -4.395,1.442 -5.071,2.133 -5.741,2.82 -6.274,3.66 -6.672,4.654 -7.07,5.646 -7.269,6.766 -7.269,8.012 c 0,1.244 0.195,2.375 0.585,3.389 0.391,1.016 0.932,1.887 1.623,2.621 0.684,0.727 1.493,1.287 2.424,1.682 0.931,0.395 1.926,0.594 2.987,0.594 0.789,0 1.503,-0.095 2.14,-0.286 0.639,-0.191 1.248,-0.457 1.825,-0.802 l 0.462,0.747 H 5.681 L 5.782,10.401 H 4.856 c -0.12,0.541 -0.3,1.128 -0.541,1.761 -0.239,0.634 -0.521,1.171 -0.844,1.61 -0.361,0.498 -0.788,0.887 -1.284,1.17 -0.498,0.28 -1.063,0.422 -1.703,0.422 -0.727,0 -1.406,-0.158 -2.034,-0.472 C -2.177,14.575 -2.718,14.11 -3.177,13.496 -3.611,12.901 -3.954,12.147 -4.201,11.23 -4.449,10.314 -4.572,9.293 -4.572,8.166 -4.572,7.17 -4.444,6.254 -4.184,5.422 -3.926,4.591 -3.557,3.859 -3.075,3.23 -2.594,2.605 -2.025,2.119 -1.368,1.768 -0.711,1.416 0.023,1.24 0.836,1.24 c 0.606,0 1.168,0.096 1.678,0.281 0.51,0.187 0.954,0.433 1.33,0.741 C 4.219,2.584 4.55,2.949 4.834,3.361 5.12,3.77 5.353,4.217 5.533,4.699 L 6.379,4.307 C 5.733,2.761 4.878,1.656 3.811,0.994 2.742,0.332 1.473,0 0,0" /></g><g
           transform="translate(35.4375,25.7324)"
           id="g44"><path
             id="path46"
             style="fill:none;stroke:#2e3e75;stroke-width:0.09;stroke-linecap:butt;stroke-linejoin:miter;stroke-miterlimit:4;stroke-dasharray:none;stroke-opacity:1"
             d="M 0,0 C -0.955,0 -1.869,0.182 -2.744,0.549 -3.62,0.915 -4.395,1.442 -5.071,2.133 -5.741,2.82 -6.274,3.66 -6.672,4.654 -7.07,5.646 -7.269,6.766 -7.269,8.012 c 0,1.244 0.195,2.375 0.585,3.389 0.391,1.016 0.932,1.887 1.623,2.621 0.684,0.727 1.493,1.287 2.424,1.682 0.931,0.395 1.926,0.594 2.987,0.594 0.789,0 1.503,-0.095 2.14,-0.286 0.639,-0.191 1.248,-0.457 1.825,-0.802 l 0.462,0.747 H 5.681 L 5.782,10.401 H 4.856 c -0.12,0.541 -0.3,1.128 -0.541,1.761 -0.239,0.634 -0.521,1.171 -0.844,1.61 -0.361,0.498 -0.788,0.887 -1.284,1.17 -0.498,0.28 -1.063,0.422 -1.703,0.422 -0.727,0 -1.406,-0.158 -2.034,-0.472 C -2.177,14.575 -2.718,14.11 -3.177,13.496 -3.611,12.901 -3.954,12.147 -4.201,11.23 -4.449,10.314 -4.572,9.293 -4.572,8.166 -4.572,7.17 -4.444,6.254 -4.184,5.422 -3.926,4.591 -3.557,3.859 -3.075,3.23 -2.594,2.605 -2.025,2.119 -1.368,1.768 -0.711,1.416 0.023,1.24 0.836,1.24 c 0.606,0 1.168,0.096 1.678,0.281 0.51,0.187 0.954,0.433 1.33,0.741 C 4.219,2.584 4.55,2.949 4.834,3.361 5.12,3.77 5.353,4.217 5.533,4.699 L 6.379,4.307 C 5.733,2.761 4.878,1.656 3.811,0.994 2.742,0.332 1.473,0 0,0 Z" /></g><g
           transform="translate(58.6299,30.6973)"
           id="g48"><path
             id="path50"
             style="fill:#007bae;fill-opacity:1;fill-rule:nonzero;stroke:none"
             d="m 0,0 -0.306,-4.592 h -13.288 v 0.779 c 0.226,0.014 0.528,0.047 0.905,0.096 0.376,0.045 0.62,0.094 0.732,0.147 0.24,0.109 0.407,0.252 0.503,0.427 0.092,0.176 0.14,0.399 0.14,0.672 v 11.2 c 0,0.242 -0.041,0.458 -0.124,0.645 -0.083,0.186 -0.256,0.337 -0.519,0.453 -0.204,0.096 -0.477,0.181 -0.818,0.254 -0.343,0.072 -0.615,0.117 -0.819,0.133 v 0.778 H -1.208 V 7.235 h -0.846 c -0.149,0.558 -0.475,1.149 -0.975,1.774 -0.499,0.627 -0.976,0.969 -1.427,1.027 -0.234,0.029 -0.511,0.051 -0.833,0.068 -0.325,0.012 -0.694,0.021 -1.107,0.021 H -8.911 V 3.931 h 1.804 c 0.58,0 1.003,0.052 1.269,0.16 0.267,0.105 0.503,0.283 0.705,0.533 0.166,0.211 0.307,0.494 0.424,0.851 0.115,0.354 0.193,0.688 0.23,1.003 h 0.846 V 0.373 h -0.846 c -0.03,0.35 -0.111,0.723 -0.241,1.114 -0.133,0.39 -0.27,0.675 -0.413,0.851 -0.233,0.287 -0.498,0.473 -0.795,0.56 -0.298,0.088 -0.69,0.131 -1.179,0.131 h -1.804 v -4.671 c 0,-0.467 0.034,-0.835 0.1,-1.105 0.068,-0.273 0.2,-0.475 0.395,-0.614 0.195,-0.141 0.464,-0.23 0.803,-0.268 0.338,-0.043 0.819,-0.062 1.443,-0.062 h 0.981 c 0.406,0 0.749,0.015 1.027,0.045 0.286,0.027 0.581,0.082 0.886,0.159 0.303,0.075 0.519,0.18 0.648,0.313 0.346,0.35 0.708,0.882 1.089,1.598 0.379,0.711 0.621,1.238 0.727,1.576 z" /></g><g
           transform="translate(58.6299,30.6973)"
           id="g52"><path
             id="path54"
             style="fill:none;stroke:#007bae;stroke-width:0.09;stroke-linecap:butt;stroke-linejoin:miter;stroke-miterlimit:4;stroke-dasharray:none;stroke-opacity:1"
             d="m 0,0 -0.306,-4.592 h -13.288 v 0.779 c 0.226,0.014 0.528,0.047 0.905,0.096 0.376,0.045 0.62,0.094 0.732,0.147 0.24,0.109 0.407,0.252 0.503,0.427 0.092,0.176 0.14,0.399 0.14,0.672 v 11.2 c 0,0.242 -0.041,0.458 -0.124,0.645 -0.083,0.186 -0.256,0.337 -0.519,0.453 -0.204,0.096 -0.477,0.181 -0.818,0.254 -0.343,0.072 -0.615,0.117 -0.819,0.133 v 0.778 H -1.208 V 7.235 h -0.846 c -0.149,0.558 -0.475,1.149 -0.975,1.774 -0.499,0.627 -0.976,0.969 -1.427,1.027 -0.234,0.029 -0.511,0.051 -0.833,0.068 -0.325,0.012 -0.694,0.021 -1.107,0.021 H -8.911 V 3.931 h 1.804 c 0.58,0 1.003,0.052 1.269,0.16 0.267,0.105 0.503,0.283 0.705,0.533 0.166,0.211 0.307,0.494 0.424,0.851 0.115,0.354 0.193,0.688 0.23,1.003 h 0.846 V 0.373 h -0.846 c -0.03,0.35 -0.111,0.723 -0.241,1.114 -0.133,0.39 -0.27,0.675 -0.413,0.851 -0.233,0.287 -0.498,0.473 -0.795,0.56 -0.298,0.088 -0.69,0.131 -1.179,0.131 h -1.804 v -4.671 c 0,-0.467 0.034,-0.835 0.1,-1.105 0.068,-0.273 0.2,-0.475 0.395,-0.614 0.195,-0.141 0.464,-0.23 0.803,-0.268 0.338,-0.043 0.819,-0.062 1.443,-0.062 h 0.981 c 0.406,0 0.749,0.015 1.027,0.045 0.286,0.027 0.581,0.082 0.886,0.159 0.303,0.075 0.519,0.18 0.648,0.313 0.346,0.35 0.708,0.882 1.089,1.598 0.379,0.711 0.621,1.238 0.727,1.576 z" /></g><g
           transform="translate(26.2725,44.0327)"
           id="g56"><path
             id="path58"
             style="fill:none;stroke:#eaa420;stroke-width:0.32100001;stroke-linecap:butt;stroke-linejoin:round;stroke-miterlimit:4;stroke-dasharray:none;stroke-opacity:1"
             d="M 0,0 H 34.648" /></g><path
           id="path60"
           style="fill:#eaa420;fill-opacity:1;fill-rule:nonzero;stroke:none"
           d="m 256.15,29.649 h -4.322 v 8.045 h 4.322 z" /><g
           transform="translate(266.668,31.5957)"
           id="g62"><path
             id="path64"
             style="fill:#2e3d75;fill-opacity:1;fill-rule:nonzero;stroke:none"
             d="m 0,0 c -0.146,-0.555 -0.409,-1.448 -0.599,-1.858 -0.293,-0.073 -1.175,-0.314 -1.931,-0.314 -2.614,0 -3.758,2.075 -3.758,3.995 0,2.546 1.701,4.212 4.042,4.212 0.85,0 1.563,-0.265 1.858,-0.326 0.084,-0.676 0.147,-1.171 0.209,-1.811 L -0.482,3.802 c -0.285,1.28 -0.914,1.799 -2.048,1.799 -1.753,0 -2.688,-1.703 -2.688,-3.537 0,-2.256 1.156,-3.801 2.751,-3.801 1.071,0 1.638,0.663 2.163,1.858 z" /></g><g
           transform="translate(268.3604,32.5137)"
           id="g66"><path
             id="path68"
             style="fill:#2e3d75;fill-opacity:1;fill-rule:nonzero;stroke:none"
             d="m 0,0 c 0,-1.521 0.566,-2.655 1.437,-2.655 0.652,0 1.187,0.554 1.187,2.208 0,1.4 -0.493,2.559 -1.428,2.559 C 0.566,2.112 0,1.363 0,0 m 3.601,-0.182 c 0,-1.943 -1.24,-2.872 -2.279,-2.872 -1.438,0 -2.299,1.327 -2.299,2.667 0,1.991 1.344,2.897 2.31,2.897 1.302,0 2.268,-1.207 2.268,-2.692" /></g><g
           transform="translate(273.8096,32.5137)"
           id="g70"><path
             id="path72"
             style="fill:#2e3d75;fill-opacity:1;fill-rule:nonzero;stroke:none"
             d="m 0,0 c 0,-1.521 0.566,-2.655 1.437,-2.655 0.652,0 1.187,0.554 1.187,2.208 0,1.4 -0.493,2.559 -1.428,2.559 C 0.566,2.112 0,1.363 0,0 m 3.601,-0.182 c 0,-1.943 -1.24,-2.872 -2.279,-2.872 -1.438,0 -2.299,1.327 -2.299,2.667 0,1.991 1.344,2.897 2.31,2.897 1.302,0 2.268,-1.207 2.268,-2.692" /></g><g
           transform="translate(279.667,30.5215)"
           id="g74"><path
             id="path76"
             style="fill:#2e3d75;fill-opacity:1;fill-rule:nonzero;stroke:none"
             d="m 0,0 c 0.23,-0.277 0.619,-0.471 0.986,-0.471 0.882,0 1.47,0.869 1.47,2.221 0,1.304 -0.65,2.028 -1.406,2.028 C 0.714,3.778 0.283,3.513 0,3.259 Z M 0.966,4.31 C 1.154,4.442 1.354,4.502 1.48,4.502 2.646,4.502 3.338,3.404 3.338,2.221 3.338,0.398 2.089,-0.772 0.725,-1.062 0.409,-1.05 0.137,-0.929 0,-0.845 v -1.581 c 0,-0.917 0.073,-0.989 0.882,-1.062 v -0.325 h -2.478 v 0.325 c 0.672,0.073 0.766,0.145 0.766,0.941 v 5.456 c 0,0.784 -0.041,0.809 -0.692,0.905 v 0.29 C -1.082,4.188 -0.494,4.394 0,4.623 V 3.67 Z" /></g><g
           transform="translate(284.749,33.0928)"
           id="g78"><path
             id="path80"
             style="fill:#2e3d75;fill-opacity:1;fill-rule:nonzero;stroke:none"
             d="m 0,0 c 0.588,0 1.176,0.012 1.785,0.036 0.189,0 0.252,0.061 0.252,0.241 C 2.047,0.905 1.69,1.484 1.103,1.484 0.63,1.484 0.157,0.978 0,0 M 2.887,-2.475 C 2.226,-3.416 1.501,-3.633 1.176,-3.633 c -1.291,0 -2.047,1.207 -2.047,2.571 0,0.821 0.262,1.569 0.692,2.112 0.431,0.543 0.997,0.881 1.533,0.881 h 0.011 c 0.871,0 1.574,-0.906 1.574,-1.834 0,-0.242 -0.042,-0.338 -0.241,-0.387 -0.168,-0.036 -1.491,-0.156 -2.751,-0.205 0.011,-1.642 0.84,-2.318 1.575,-2.318 0.431,0 0.819,0.194 1.207,0.604 z" /></g><g
           transform="translate(289.9668,33.7324)"
           id="g82"><path
             id="path84"
             style="fill:#2e3d75;fill-opacity:1;fill-rule:nonzero;stroke:none"
             d="M 0,0 C 0.315,0.615 0.767,1.291 1.271,1.291 1.628,1.291 1.88,0.966 1.88,0.687 1.88,0.446 1.743,0.205 1.544,0.097 1.417,0.036 1.333,0.048 1.271,0.12 1.113,0.29 0.987,0.362 0.819,0.362 c -0.273,0 -0.609,-0.35 -0.84,-1.026 v -2.209 c 0,-0.796 0.053,-0.868 0.861,-0.941 v -0.314 h -2.414 v 0.314 c 0.65,0.073 0.723,0.145 0.723,0.941 v 2.499 c 0,0.796 -0.041,0.845 -0.65,0.929 v 0.278 c 0.515,0.097 0.977,0.241 1.48,0.482 l 0,-1.315 z" /></g><g
           transform="translate(294.9229,32.501)"
           id="g86"><path
             id="path88"
             style="fill:#2e3d75;fill-opacity:1;fill-rule:nonzero;stroke:none"
             d="m 0,0 c -0.221,-0.133 -0.725,-0.386 -0.944,-0.507 -0.41,-0.217 -0.641,-0.446 -0.641,-0.892 0,-0.617 0.42,-0.918 0.745,-0.918 0.274,0 0.641,0.205 0.84,0.434 z m 0.767,-3.041 c -0.158,0 -0.378,0.108 -0.494,0.241 -0.136,0.157 -0.199,0.326 -0.252,0.531 -0.419,-0.326 -0.923,-0.772 -1.239,-0.772 -0.745,0 -1.26,0.712 -1.26,1.473 0,0.59 0.274,0.964 0.851,1.194 C -0.997,-0.133 -0.23,0.193 0,0.41 V 0.616 C 0,1.497 -0.356,1.979 -0.893,1.979 -1.092,1.979 -1.249,1.896 -1.364,1.75 -1.49,1.581 -1.585,1.315 -1.669,0.954 -1.722,0.761 -1.826,0.676 -1.974,0.676 c -0.188,0 -0.451,0.229 -0.451,0.519 0,0.169 0.126,0.314 0.325,0.483 0.284,0.241 0.977,0.7 1.576,0.844 0.314,0 0.629,-0.108 0.86,-0.325 C 0.703,1.835 0.809,1.352 0.809,0.712 v -2.233 c 0,-0.542 0.189,-0.724 0.367,-0.724 0.126,0 0.273,0.06 0.378,0.133 l 0.105,-0.314 z" /></g><g
           transform="translate(299.1533,29.6162)"
           id="g90"><path
             id="path92"
             style="fill:#2e3d75;fill-opacity:1;fill-rule:nonzero;stroke:none"
             d="m 0,0 c -0.178,-0.108 -0.336,-0.156 -0.44,-0.156 -0.662,0 -1.029,0.482 -1.029,1.435 V 4.78 h -0.724 l -0.042,0.133 0.294,0.35 h 0.472 V 6.132 L -0.787,6.94 -0.64,6.916 V 5.263 H 0.547 C 0.651,5.13 0.62,4.877 0.483,4.78 H -0.64 V 1.69 c 0,-0.977 0.347,-1.159 0.619,-1.159 0.263,0 0.504,0.121 0.641,0.205 L 0.715,0.423 Z" /></g><g
           transform="translate(300.9287,36.6895)"
           id="g94"><path
             id="path96"
             style="fill:#2e3d75;fill-opacity:1;fill-rule:nonzero;stroke:none"
             d="M 0,0 C 0,0.362 0.252,0.628 0.535,0.628 0.829,0.628 1.061,0.362 1.061,0 1.061,-0.326 0.829,-0.615 0.524,-0.615 0.252,-0.615 0,-0.326 0,0 m -0.557,-7.085 v 0.314 c 0.661,0.073 0.735,0.145 0.735,0.965 v 2.487 c 0,0.748 -0.032,0.808 -0.661,0.917 v 0.29 c 0.536,0.096 1.04,0.254 1.491,0.47 v -4.164 c 0,-0.82 0.073,-0.892 0.745,-0.965 v -0.314 z" /></g><g
           transform="translate(307.9619,34.5654)"
           id="g98"><path
             id="path100"
             style="fill:#2e3d75;fill-opacity:1;fill-rule:nonzero;stroke:none"
             d="m 0,0 c -0.556,-0.085 -0.64,-0.193 -0.924,-0.905 -0.356,-0.906 -0.902,-2.39 -1.49,-4.189 h -0.294 c -0.462,1.448 -0.944,2.813 -1.448,4.225 -0.242,0.687 -0.316,0.772 -0.883,0.869 v 0.313 h 2.152 V 0 c -0.566,-0.072 -0.588,-0.169 -0.42,-0.688 0.263,-0.845 0.694,-2.125 0.998,-2.982 0.368,1.002 0.704,2.089 0.934,2.873 0.168,0.579 0.105,0.712 -0.493,0.797 v 0.313 l 1.868,0 z" /></g><g
           transform="translate(309.1602,33.0928)"
           id="g102"><path
             id="path104"
             style="fill:#2e3d75;fill-opacity:1;fill-rule:nonzero;stroke:none"
             d="m 0,0 c 0.588,0 1.176,0.012 1.784,0.036 0.19,0 0.252,0.061 0.252,0.241 C 2.047,0.905 1.69,1.484 1.103,1.484 0.63,1.484 0.157,0.978 0,0 M 2.887,-2.475 C 2.226,-3.416 1.501,-3.633 1.176,-3.633 c -1.291,0 -2.047,1.207 -2.047,2.571 0,0.821 0.263,1.569 0.692,2.112 0.431,0.543 0.998,0.881 1.533,0.881 h 0.01 c 0.872,0 1.575,-0.906 1.575,-1.834 0,-0.242 -0.042,-0.338 -0.241,-0.387 -0.168,-0.036 -1.491,-0.156 -2.751,-0.205 0.011,-1.642 0.84,-2.318 1.575,-2.318 0.43,0 0.819,0.194 1.207,0.604 z" /></g><g
           transform="translate(320.667,31.5117)"
           id="g106"><path
             id="path108"
             style="fill:#2e3d75;fill-opacity:1;fill-rule:nonzero;stroke:none"
             d="m 0,0 c -0.063,-0.398 -0.273,-1.533 -0.368,-1.907 h -5.06 v 0.338 c 0.955,0.085 1.039,0.18 1.039,1.171 v 4.803 c 0,1.074 -0.084,1.122 -0.902,1.196 v 0.337 h 4.682 c 0,-0.301 0.052,-1.123 0.084,-1.738 L -0.83,4.151 c -0.094,0.508 -0.199,0.773 -0.336,1.027 -0.146,0.265 -0.43,0.349 -1.186,0.349 H -3.15 c -0.326,0 -0.346,-0.036 -0.346,-0.385 V 2.39 h 0.986 c 0.955,0 1.008,0.096 1.134,0.905 h 0.305 V 0.989 h -0.305 c -0.136,0.858 -0.21,0.93 -1.123,0.93 h -0.997 v -2.281 c 0,-0.568 0.062,-0.833 0.252,-0.978 0.199,-0.157 0.566,-0.157 1.092,-0.157 0.798,0 1.091,0.097 1.322,0.41 0.179,0.242 0.378,0.664 0.525,1.135 z" /></g><g
           transform="translate(323.7227,29.6045)"
           id="g110"><path
             id="path112"
             style="fill:#2e3d75;fill-opacity:1;fill-rule:nonzero;stroke:none"
             d="M 0,0 V 0.313 C 0.44,0.374 0.535,0.471 0.356,0.797 L -0.42,2.209 C -0.651,1.811 -0.893,1.364 -1.092,0.93 -1.302,0.519 -1.271,0.41 -0.735,0.313 V 0 h -1.953 v 0.313 c 0.652,0.097 0.767,0.194 1.176,0.797 0.294,0.423 0.577,0.906 0.893,1.449 L -1.532,4.2 c -0.326,0.579 -0.452,0.676 -1.03,0.761 v 0.313 h 2.089 V 4.961 C -0.913,4.889 -0.955,4.792 -0.756,4.454 l 0.619,-1.123 c 0.21,0.362 0.42,0.736 0.61,1.135 C 0.661,4.84 0.588,4.9 0.126,4.961 V 5.274 H 2.047 V 4.961 C 1.407,4.889 1.271,4.828 0.893,4.321 0.672,4.007 0.42,3.585 0.073,2.993 L 1.092,1.207 C 1.48,0.519 1.616,0.41 2.247,0.313 V 0 Z" /></g><g
           transform="translate(328.458,29.6162)"
           id="g114"><path
             id="path116"
             style="fill:#2e3d75;fill-opacity:1;fill-rule:nonzero;stroke:none"
             d="m 0,0 c -0.178,-0.108 -0.336,-0.156 -0.44,-0.156 -0.662,0 -1.029,0.482 -1.029,1.435 V 4.78 h -0.724 l -0.042,0.133 0.294,0.35 h 0.472 V 6.132 L -0.787,6.94 -0.64,6.916 V 5.263 H 0.547 C 0.651,5.13 0.62,4.877 0.483,4.78 H -0.64 V 1.69 c 0,-0.977 0.347,-1.159 0.619,-1.159 0.263,0 0.504,0.121 0.641,0.205 L 0.715,0.423 Z" /></g><g
           transform="translate(330.6006,33.0928)"
           id="g118"><path
             id="path120"
             style="fill:#2e3d75;fill-opacity:1;fill-rule:nonzero;stroke:none"
             d="m 0,0 c 0.588,0 1.176,0.012 1.785,0.036 0.189,0 0.252,0.061 0.252,0.241 C 2.047,0.905 1.69,1.484 1.103,1.484 0.63,1.484 0.157,0.978 0,0 M 2.887,-2.475 C 2.226,-3.416 1.501,-3.633 1.176,-3.633 c -1.291,0 -2.047,1.207 -2.047,2.571 0,0.821 0.262,1.569 0.692,2.112 0.431,0.543 0.997,0.881 1.533,0.881 h 0.011 c 0.871,0 1.574,-0.906 1.574,-1.834 0,-0.242 -0.042,-0.338 -0.241,-0.387 -0.168,-0.036 -1.491,-0.156 -2.751,-0.205 0.011,-1.642 0.84,-2.318 1.575,-2.318 0.431,0 0.819,0.194 1.207,0.604 z" /></g><g
           transform="translate(337.2031,29.6045)"
           id="g122"><path
             id="path124"
             style="fill:#2e3d75;fill-opacity:1;fill-rule:nonzero;stroke:none"
             d="m 0,0 v 0.313 c 0.62,0.074 0.693,0.169 0.693,1.002 v 2.016 c 0,0.833 -0.252,1.376 -0.956,1.376 -0.42,0 -0.829,-0.302 -1.143,-0.615 V 1.255 c 0,-0.82 0.062,-0.868 0.682,-0.942 V 0 h -2.278 v 0.313 c 0.714,0.085 0.767,0.146 0.767,0.942 v 2.486 c 0,0.773 -0.064,0.821 -0.631,0.942 v 0.278 c 0.504,0.108 0.998,0.253 1.46,0.482 V 4.49 c 0.21,0.181 0.44,0.362 0.703,0.568 0.294,0.216 0.567,0.361 0.871,0.361 0.84,0 1.354,-0.676 1.354,-1.834 v -2.33 c 0,-0.82 0.063,-0.868 0.672,-0.942 L 2.194,0 Z" /></g><g
           transform="translate(342.8213,33.4424)"
           id="g126"><path
             id="path128"
             style="fill:#2e3d75;fill-opacity:1;fill-rule:nonzero;stroke:none"
             d="m 0,0 c -0.211,0.725 -0.567,1.195 -1.082,1.195 -0.409,0 -0.682,-0.35 -0.682,-0.833 0,-0.531 0.42,-0.808 0.881,-1.038 0.799,-0.374 1.334,-0.808 1.334,-1.641 0,-1.098 -0.892,-1.665 -1.732,-1.665 -0.535,0 -1.019,0.229 -1.198,0.41 -0.073,0.169 -0.177,0.989 -0.177,1.424 l 0.283,0.06 c 0.179,-0.797 0.65,-1.496 1.281,-1.496 0.388,0 0.745,0.325 0.745,0.845 0,0.531 -0.304,0.82 -0.829,1.097 -0.631,0.327 -1.312,0.737 -1.312,1.655 0,0.844 0.63,1.568 1.595,1.568 0.43,0 0.714,-0.108 0.924,-0.217 0.094,-0.265 0.21,-0.99 0.231,-1.279 z" /></g><g
           transform="translate(344.5752,36.6895)"
           id="g130"><path
             id="path132"
             style="fill:#2e3d75;fill-opacity:1;fill-rule:nonzero;stroke:none"
             d="M 0,0 C 0,0.362 0.252,0.628 0.535,0.628 0.829,0.628 1.061,0.362 1.061,0 1.061,-0.326 0.829,-0.615 0.524,-0.615 0.252,-0.615 0,-0.326 0,0 m -0.557,-7.085 v 0.314 c 0.661,0.073 0.735,0.145 0.735,0.965 v 2.487 c 0,0.748 -0.032,0.808 -0.661,0.917 v 0.29 c 0.536,0.096 1.04,0.254 1.491,0.47 v -4.164 c 0,-0.82 0.073,-0.892 0.745,-0.965 v -0.314 z" /></g><g
           transform="translate(347.9561,32.5137)"
           id="g134"><path
             id="path136"
             style="fill:#2e3d75;fill-opacity:1;fill-rule:nonzero;stroke:none"
             d="m 0,0 c 0,-1.521 0.566,-2.655 1.437,-2.655 0.652,0 1.187,0.554 1.187,2.208 0,1.4 -0.493,2.559 -1.428,2.559 C 0.566,2.112 0,1.363 0,0 m 3.601,-0.182 c 0,-1.943 -1.24,-2.872 -2.279,-2.872 -1.438,0 -2.299,1.327 -2.299,2.667 0,1.991 1.344,2.897 2.31,2.897 1.302,0 2.268,-1.207 2.268,-2.692" /></g><g
           transform="translate(355.3457,29.6045)"
           id="g138"><path
             id="path140"
             style="fill:#2e3d75;fill-opacity:1;fill-rule:nonzero;stroke:none"
             d="m 0,0 v 0.313 c 0.62,0.074 0.693,0.169 0.693,1.002 v 2.016 c 0,0.833 -0.252,1.376 -0.956,1.376 -0.42,0 -0.829,-0.302 -1.143,-0.615 V 1.255 c 0,-0.82 0.062,-0.868 0.682,-0.942 V 0 h -2.278 v 0.313 c 0.714,0.085 0.767,0.146 0.767,0.942 v 2.486 c 0,0.773 -0.064,0.821 -0.631,0.942 v 0.278 c 0.504,0.108 0.998,0.253 1.46,0.482 V 4.49 c 0.21,0.181 0.44,0.362 0.703,0.568 0.294,0.216 0.567,0.361 0.871,0.361 0.84,0 1.354,-0.676 1.354,-1.834 v -2.33 c 0,-0.82 0.063,-0.868 0.672,-0.942 L 2.194,0 Z" /></g><g
           transform="translate(86.3896,50.4634)"
           id="g142"><path
             id="path144"
             style="fill:#2e3d75;fill-opacity:1;fill-rule:nonzero;stroke:none"
             d="m 0,0 c 0,-3.26 1.246,-3.785 2.324,-3.785 1.264,0 2.324,0.596 2.324,3.941 v 5.259 c 0,0.333 0.125,0.403 0.344,0.438 C 5.443,5.905 6.053,5.922 6.363,5.922 6.332,5.223 6.316,4.189 6.316,2.734 V 0.245 c 0,-4.908 -2.308,-5.608 -4.211,-5.608 -2.634,0 -4.054,1.525 -4.054,5.293 v 3.591 c 0,1.176 -0.016,1.894 -0.049,2.262 0.281,0.053 1.357,0.139 1.672,0.139 C -0.047,5.922 0,5.766 0,4.906 Z" /></g><g
           transform="translate(99.2725,50.0952)"
           id="g146"><path
             id="path148"
             style="fill:#2e3d75;fill-opacity:1;fill-rule:nonzero;stroke:none"
             d="m 0,0 c 0,1.017 -0.482,1.595 -1.17,1.595 -0.609,0 -0.998,-0.317 -1.342,-0.649 v -5.241 c 0,-0.313 -0.047,-0.401 -0.357,-0.436 -0.531,-0.088 -1.016,-0.106 -1.576,-0.106 0.031,0.929 0.047,1.997 0.047,3.19 v 2.875 c 0,0.525 -0.063,0.787 -0.295,0.945 v 0.123 c 0.154,0.437 0.685,0.893 1.168,0.893 0.591,0 0.826,-0.63 0.921,-1.174 0.639,0.632 1.387,1.174 2.167,1.174 1.982,0 2.324,-1.839 2.324,-3.206 v -2.209 c 0,-0.911 0.015,-1.875 0.062,-2.47 C 1.592,-4.731 0.967,-4.837 0.312,-4.837 0.078,-4.837 0,-4.731 0,-4.503 Z" /></g><g
           transform="translate(105.1846,45.7856)"
           id="g150"><path
             id="path152"
             style="fill:#2e3d75;fill-opacity:1;fill-rule:nonzero;stroke:none"
             d="m 0,0 c 0,-0.316 -0.109,-0.404 -0.453,-0.457 -0.313,-0.053 -0.873,-0.07 -1.483,-0.07 0.016,0.718 0.047,1.736 0.047,2.752 v 2.996 c 0,1.068 -0.031,1.611 -0.062,1.964 0.359,0.122 1.342,0.21 1.67,0.21 C -0.062,7.395 0,7.307 0,6.289 Z m -0.906,11.18 c 0.594,0 0.951,-0.492 0.951,-1.141 0,-0.664 -0.42,-1.191 -1.012,-1.191 -0.484,0 -0.984,0.334 -0.984,1.139 0,0.859 0.639,1.193 1.029,1.193 z" /></g><g
           transform="translate(108.0693,53.2847)"
           id="g154"><path
             id="path156"
             style="fill:#2e3d75;fill-opacity:1;fill-rule:nonzero;stroke:none"
             d="M 0,0 C 0.203,0 0.326,-0.157 0.406,-0.403 0.764,-1.578 1.373,-3.54 1.934,-5.626 2.559,-3.609 3.275,-1.437 3.666,0 4.104,0 4.477,-0.087 4.852,-0.28 5.178,-0.437 5.1,-0.823 4.881,-1.455 4.227,-3.276 3.336,-5.661 2.682,-7.499 2.588,-7.78 2.449,-7.886 2.215,-7.956 1.824,-8.061 1.295,-8.131 0.982,-8.131 0.467,-6.414 -0.109,-4.766 -0.811,-2.7 -1.123,-1.771 -1.357,-1.068 -1.623,-0.437 -1.264,-0.21 -0.437,0 -0.016,0 Z" /></g><g
           transform="translate(117.085,52.0571)"
           id="g158"><path
             id="path160"
             style="fill:#2e3d75;fill-opacity:1;fill-rule:nonzero;stroke:none"
             d="m 0,0 c -0.578,0 -1.203,-0.612 -1.264,-1.928 0.639,-0.051 1.84,-0.034 2.213,0 0.112,0 0.205,0.176 0.205,0.369 C 1.17,-0.701 0.811,0 0.016,0 Z m 2.621,-4.959 c 0,-0.77 -0.547,-1.49 -0.812,-1.629 -0.235,-0.123 -0.907,-0.315 -1.452,-0.315 -2.277,0 -3.525,1.401 -3.525,3.977 0,2.121 1.232,4.154 3.338,4.154 1.982,0 2.746,-1.613 2.762,-3.015 0,-0.246 -0.016,-0.438 -0.047,-0.578 -0.047,-0.264 -0.67,-0.509 -1.311,-0.684 -0.39,-0.106 -2.011,-0.121 -2.869,-0.087 0.076,-1.543 1.076,-2.192 2.137,-2.192 0.748,0 1.482,0.266 1.748,0.404 z" /></g><g
           transform="translate(121.1846,52.3735)"
           id="g162"><path
             id="path164"
             style="fill:#2e3d75;fill-opacity:1;fill-rule:nonzero;stroke:none"
             d="m 0,0 c 0.125,0.403 0.719,0.911 1.141,0.911 0.685,0 0.966,-0.735 0.982,-1.823 C 2.576,0.28 3.23,0.911 4.057,0.911 4.354,0.911 4.65,0.754 4.789,0.613 4.869,0.421 4.854,-0.087 4.697,-0.42 4.633,-0.789 4.322,-1.209 4.088,-1.244 3.775,-1.105 3.604,-1.069 3.34,-1.069 3.09,-1.069 2.637,-1.279 2.389,-2.015 2.293,-2.295 2.246,-2.488 2.246,-2.874 v -3.662 c 0,-0.28 -0.031,-0.422 -0.342,-0.491 -0.545,-0.071 -1.031,-0.088 -1.592,-0.088 0.032,0.928 0.047,1.997 0.047,3.189 v 2.962 c 0,0.403 -0.091,0.719 -0.359,0.894 z" /></g><g
           transform="translate(129.4209,53.2847)"
           id="g166"><path
             id="path168"
             style="fill:#2e3d75;fill-opacity:1;fill-rule:nonzero;stroke:none"
             d="M 0,0 C 0.625,0 1.232,-0.175 1.746,-0.614 1.762,-1.068 1.576,-1.753 1.029,-1.7 c -0.312,0.157 -0.701,0.28 -1.076,0.28 -0.469,0 -0.795,-0.28 -0.795,-0.7 0,-0.367 0.248,-0.58 0.576,-0.789 0.297,-0.194 0.92,-0.509 1.28,-0.719 0.779,-0.49 1.091,-1.156 1.091,-1.928 0,-1.734 -1.371,-2.575 -2.791,-2.575 -0.609,0 -1.263,0.193 -1.685,0.49 -0.203,0.157 -0.344,0.368 -0.344,0.632 0.016,0.367 0.188,0.752 0.406,0.946 0.454,-0.315 1.123,-0.631 1.747,-0.631 0.562,0 0.89,0.298 0.89,0.734 0,0.316 -0.156,0.545 -0.609,0.808 -0.389,0.245 -0.795,0.456 -1.186,0.702 -0.638,0.402 -1.09,1.068 -1.09,1.996 0,1.56 1.2,2.454 2.541,2.454 z" /></g><g
           transform="translate(134.8799,45.7856)"
           id="g170"><path
             id="path172"
             style="fill:#2e3d75;fill-opacity:1;fill-rule:nonzero;stroke:none"
             d="m 0,0 c 0,-0.316 -0.109,-0.404 -0.453,-0.457 -0.311,-0.053 -0.873,-0.07 -1.481,-0.07 0.016,0.718 0.047,1.736 0.047,2.752 v 2.996 c 0,1.068 -0.031,1.611 -0.062,1.964 0.357,0.122 1.342,0.21 1.67,0.21 C -0.062,7.395 0,7.307 0,6.289 Z m -0.904,11.18 c 0.592,0 0.951,-0.492 0.951,-1.141 0,-0.664 -0.422,-1.191 -1.014,-1.191 -0.484,0 -0.982,0.334 -0.982,1.139 0,0.859 0.638,1.193 1.029,1.193 z" /></g><g
           transform="translate(141.2119,46.9419)"
           id="g174"><path
             id="path176"
             style="fill:#2e3d75;fill-opacity:1;fill-rule:nonzero;stroke:none"
             d="m 0,0 c 0.078,-0.422 0.016,-0.965 -0.266,-1.228 -0.373,-0.368 -1.029,-0.56 -1.714,-0.56 -1.592,0 -2.108,1.138 -2.108,2.349 v 4.187 c -0.576,0 -0.873,0.316 -0.873,0.491 0.219,0.508 1.482,1.769 1.748,2.015 0.266,0.245 0.561,0.457 1.17,0.526 C -2.105,7.254 -2.137,6.624 -2.137,6.133 H 0.17 C -0.016,4.923 -0.359,4.871 -0.67,4.836 -1.029,4.8 -1.529,4.765 -2.184,4.765 -2.246,3.328 -2.23,1.629 -2.168,0.893 c 0.078,-0.86 0.498,-1.176 1.029,-1.176 0.469,0 0.907,0.178 1.094,0.316 z" /></g><g
           transform="translate(142.7256,42.5088)"
           id="g178"><path
             id="path180"
             style="fill:#2e3d75;fill-opacity:1;fill-rule:nonzero;stroke:none"
             d="M 0,0 C 0.467,0.578 1.402,2.031 1.98,3.257 1.902,3.38 1.73,3.748 1.637,4.029 1.342,4.87 -0.016,8.901 -0.609,10.302 c 0.437,0.245 1.201,0.474 1.589,0.474 0.282,0 0.362,-0.21 0.469,-0.49 0.391,-1.14 1.139,-3.593 1.514,-4.91 0.56,1.597 1.232,4.155 1.435,5.4 0.311,-0.019 0.686,-0.07 1.077,-0.193 C 5.848,10.478 5.896,10.25 5.801,9.83 5.396,8.007 4.756,5.781 3.854,3.66 2.854,1.332 1.621,-0.719 1.262,-0.719 0.717,-0.719 0.172,-0.334 0,-0.072 Z" /></g><g
           transform="translate(154.915,47.7534)"
           id="g182"><path
             id="path184"
             style="fill:#2e3d75;fill-opacity:1;fill-rule:nonzero;stroke:none"
             d="M 0,0 C 0.504,0.231 1.062,1.595 1.062,3.356 1.053,4.357 0.732,4.808 0.297,4.808 0.193,4.808 0.068,4.782 -0.035,4.729 -0.391,4.551 -1.109,3.471 -1.109,1.415 c 0,-0.977 0.353,-1.478 0.789,-1.478 0.136,0 0.216,0.025 0.32,0.063 m -2.402,1.453 c 0,1.684 0.824,2.917 1.716,3.444 0.457,0.27 0.959,0.452 1.407,0.452 1.062,0 1.634,-0.786 1.634,-2.034 0,-1.117 -0.4,-2.325 -1.222,-3.109 -0.492,-0.477 -1.201,-0.822 -1.889,-0.822 -1.269,0 -1.646,1.066 -1.646,2.069" /></g><g
           transform="translate(159.124,52.8813)"
           id="g186"><path
             id="path188"
             style="fill:#2e3d75;fill-opacity:1;fill-rule:nonzero;stroke:none"
             d="M 0,0 C 0.205,1.018 0.48,1.827 1.018,2.443 1.613,3.125 2.332,3.484 2.789,3.484 3.293,3.484 3.578,3.137 3.568,2.855 3.555,2.572 3.338,2.302 3.191,2.186 3.088,2.121 2.984,2.109 2.893,2.225 2.607,2.597 2.355,2.816 2.127,2.816 1.842,2.828 1.578,2.469 1.223,0 H 2.539 L 2.287,-0.475 1.121,-0.59 C 0.926,-1.85 0.789,-2.84 0.492,-4.293 0.068,-6.437 -0.424,-7.324 -1.154,-8.07 c -0.494,-0.502 -0.938,-0.72 -1.272,-0.72 -0.353,0 -0.754,0.282 -0.742,0.592 0,0.256 0.182,0.512 0.365,0.667 0.092,0.077 0.16,0.091 0.24,0.025 0.208,-0.23 0.608,-0.41 0.836,-0.41 0.184,0 0.319,0.102 0.411,0.295 0.093,0.181 0.263,0.668 0.595,2.867 0.276,1.774 0.424,2.904 0.617,4.164 H -1.029 L -1.076,-0.448 -0.699,0 Z" /></g><g
           transform="translate(173.2158,47.0806)"
           id="g190"><path
             id="path192"
             style="fill:#2e3d75;fill-opacity:1;fill-rule:nonzero;stroke:none"
             d="m 0,0 c -0.047,-0.596 -0.25,-1.104 -0.516,-1.385 -0.39,-0.28 -1.216,-0.595 -2.261,-0.595 -3.555,0 -5.475,2.278 -5.475,5.626 0,3.625 2.449,5.852 5.537,5.852 1.483,0 2.621,-0.56 2.871,-0.876 C 0.187,8.026 -0.172,7.43 -0.672,7.518 -1.139,7.746 -1.873,7.992 -2.73,7.992 c -1.887,0 -3.43,-1.385 -3.43,-4.189 0,-2.383 1.355,-4.205 3.836,-4.205 1.045,0 1.873,0.297 2.277,0.437 z" /></g><g
           transform="translate(176.085,47.6235)"
           id="g194"><path
             id="path196"
             style="fill:#2e3d75;fill-opacity:1;fill-rule:nonzero;stroke:none"
             d="m 0,0 c 0,-0.613 0.422,-0.965 0.92,-0.965 0.437,0 0.687,0.194 0.906,0.457 0.076,0.106 0.123,0.281 0.123,0.596 V 1.332 C 0.592,1.156 0,0.596 0,0.018 Z M 4.553,-0.998 C 4.57,-1.928 4.135,-2.47 3.244,-2.47 2.605,-2.47 2.186,-2.103 1.98,-1.489 1.574,-1.979 0.889,-2.47 0.141,-2.47 c -1.03,0 -1.952,0.876 -1.952,2.171 0,1.807 1.873,2.297 2.981,2.578 0.281,0.07 0.623,0.121 0.81,0.176 v 0.297 c 0,0.736 -0.451,1.331 -1.232,1.331 -0.561,0 -1.107,-0.279 -1.449,-0.507 -0.656,-0.211 -0.875,0.421 -0.875,0.945 0.672,0.544 1.779,1.14 2.826,1.14 1.4,0 2.539,-1.052 2.539,-2.962 0,-0.718 -0.06,-2.051 -0.06,-3.189 0,-0.227 0.187,-0.475 0.56,-0.475 0.078,0 0.188,0.02 0.264,0.036 z" /></g><g
           transform="translate(182.0889,55.0728)"
           id="g198"><path
             id="path200"
             style="fill:#2e3d75;fill-opacity:1;fill-rule:nonzero;stroke:none"
             d="m 0,0 c 0,1.033 -0.029,1.506 -0.062,1.857 0.312,0.159 1.326,0.315 1.654,0.315 0.232,0 0.297,-0.088 0.297,-1.139 v -8.429 c 0,-0.86 0.031,-1.803 0.062,-2.313 C 1.623,-9.797 0.437,-9.849 0.219,-9.849 0.064,-9.849 0,-9.797 0,-9.622 Z" /></g><g
           transform="translate(187.9697,45.7856)"
           id="g202"><path
             id="path204"
             style="fill:#2e3d75;fill-opacity:1;fill-rule:nonzero;stroke:none"
             d="m 0,0 c 0,-0.316 -0.109,-0.404 -0.453,-0.457 -0.313,-0.053 -0.873,-0.07 -1.481,-0.07 0.014,0.718 0.047,1.736 0.047,2.752 v 2.996 c 0,1.068 -0.033,1.611 -0.062,1.964 0.357,0.122 1.342,0.21 1.668,0.21 C -0.062,7.395 0,7.307 0,6.289 Z m -0.904,11.18 c 0.592,0 0.951,-0.492 0.951,-1.141 0,-0.664 -0.422,-1.191 -1.014,-1.191 -0.484,0 -0.982,0.334 -0.982,1.139 0,0.859 0.638,1.193 1.029,1.193 z" /></g><g
           transform="translate(193.2881,57.3501)"
           id="g206"><path
             id="path208"
             style="fill:#2e3d75;fill-opacity:1;fill-rule:nonzero;stroke:none"
             d="M 0,0 C 0.437,0 0.857,-0.158 1.076,-0.403 1.17,-0.841 0.842,-1.611 0.422,-1.577 0.297,-1.525 0.125,-1.49 0,-1.49 c -0.764,0 -1.154,-0.805 -1.107,-2.785 0.218,0 1.496,-0.019 1.871,0.035 -0.047,-0.578 -0.28,-0.982 -0.483,-1.139 -0.201,-0.176 -0.75,-0.245 -1.435,-0.245 0,-1.474 0.062,-5.364 0.062,-6.327 -0.5,-0.086 -1.513,-0.141 -1.73,-0.141 -0.158,0 -0.25,0.035 -0.25,0.299 0.047,1.892 0.031,4.012 0.031,6.169 -0.609,0.052 -0.906,0.245 -0.906,0.63 0.265,0.349 0.515,0.455 0.906,0.719 0,1.787 0.451,2.785 1.092,3.468 C -1.295,-0.141 -0.607,0 -0.016,0 Z" /></g><g
           transform="translate(197.6084,51.9878)"
           id="g210"><path
             id="path212"
             style="fill:#2e3d75;fill-opacity:1;fill-rule:nonzero;stroke:none"
             d="m 0,0 c -0.951,0 -1.467,-1.104 -1.467,-2.611 0,-1.998 0.75,-2.927 1.639,-2.927 0.967,0 1.45,1.07 1.45,2.682 C 1.622,-1.368 1.154,0 0.016,0 Z m 0.172,1.297 c 2.246,0 3.432,-1.787 3.432,-3.96 0,-2.454 -1.419,-4.171 -3.604,-4.171 -2.012,0 -3.447,1.505 -3.447,3.995 0,2.383 1.513,4.136 3.603,4.136 z" /></g><g
           transform="translate(202.5361,52.3735)"
           id="g214"><path
             id="path216"
             style="fill:#2e3d75;fill-opacity:1;fill-rule:nonzero;stroke:none"
             d="m 0,0 c 0.125,0.403 0.717,0.911 1.139,0.911 0.687,0 0.966,-0.735 0.982,-1.823 0.453,1.192 1.108,1.823 1.936,1.823 0.295,0 0.591,-0.157 0.732,-0.298 C 4.867,0.421 4.852,-0.087 4.695,-0.42 4.633,-0.789 4.32,-1.209 4.088,-1.244 3.775,-1.105 3.604,-1.069 3.338,-1.069 3.09,-1.069 2.637,-1.279 2.387,-2.015 2.293,-2.295 2.248,-2.488 2.248,-2.874 v -3.662 c 0,-0.28 -0.031,-0.422 -0.346,-0.491 -0.545,-0.071 -1.027,-0.088 -1.59,-0.088 0.032,0.928 0.047,1.997 0.047,3.189 v 2.962 c 0,0.403 -0.093,0.719 -0.359,0.894 z" /></g><g
           transform="translate(213.1416,50.0952)"
           id="g218"><path
             id="path220"
             style="fill:#2e3d75;fill-opacity:1;fill-rule:nonzero;stroke:none"
             d="m 0,0 c 0,1.017 -0.482,1.595 -1.17,1.595 -0.607,0 -0.996,-0.317 -1.342,-0.649 v -5.241 c 0,-0.313 -0.045,-0.401 -0.357,-0.436 -0.531,-0.088 -1.014,-0.106 -1.576,-0.106 0.031,0.929 0.047,1.997 0.047,3.19 v 2.875 c 0,0.525 -0.063,0.787 -0.295,0.945 v 0.123 c 0.156,0.437 0.685,0.893 1.17,0.893 0.591,0 0.826,-0.63 0.919,-1.174 0.639,0.632 1.389,1.174 2.17,1.174 1.977,0 2.325,-1.839 2.325,-3.206 v -2.209 c 0,-0.911 0.011,-1.875 0.06,-2.47 C 1.592,-4.731 0.969,-4.837 0.312,-4.837 0.078,-4.837 0,-4.731 0,-4.503 Z" /></g><g
           transform="translate(219.0693,45.7856)"
           id="g222"><path
             id="path224"
             style="fill:#2e3d75;fill-opacity:1;fill-rule:nonzero;stroke:none"
             d="m 0,0 c 0,-0.316 -0.109,-0.404 -0.453,-0.457 -0.311,-0.053 -0.873,-0.07 -1.481,-0.07 0.016,0.718 0.045,1.736 0.045,2.752 v 2.996 c 0,1.068 -0.029,1.611 -0.06,1.964 0.357,0.122 1.34,0.21 1.668,0.21 C -0.062,7.395 0,7.307 0,6.289 Z m -0.904,11.18 c 0.592,0 0.949,-0.492 0.949,-1.141 0,-0.664 -0.418,-1.191 -1.012,-1.191 -0.484,0 -0.982,0.334 -0.982,1.139 0,0.859 0.638,1.193 1.029,1.193 z" /></g><g
           transform="translate(222.4229,47.6235)"
           id="g226"><path
             id="path228"
             style="fill:#2e3d75;fill-opacity:1;fill-rule:nonzero;stroke:none"
             d="m 0,0 c 0,-0.613 0.422,-0.965 0.92,-0.965 0.437,0 0.685,0.194 0.904,0.457 0.078,0.106 0.125,0.281 0.125,0.596 V 1.332 C 0.592,1.156 0,0.596 0,0.018 Z M 4.555,-0.998 C 4.57,-1.928 4.133,-2.47 3.244,-2.47 2.605,-2.47 2.184,-2.103 1.98,-1.489 1.574,-1.979 0.889,-2.47 0.141,-2.47 c -1.03,0 -1.95,0.876 -1.95,2.171 0,1.807 1.871,2.297 2.979,2.578 0.281,0.07 0.623,0.121 0.81,0.176 v 0.297 c 0,0.736 -0.453,1.331 -1.232,1.331 -0.562,0 -1.107,-0.279 -1.449,-0.507 -0.656,-0.211 -0.875,0.421 -0.875,0.945 0.672,0.544 1.777,1.14 2.824,1.14 1.404,0 2.543,-1.052 2.543,-2.962 0,-0.718 -0.062,-2.051 -0.062,-3.189 0,-0.227 0.187,-0.475 0.56,-0.475 0.078,0 0.188,0.02 0.266,0.036 z" /></g><g
           transform="translate(87.6318,35.7803)"
           id="g230"><path
             id="path232"
             style="fill:#2e3d75;fill-opacity:1;fill-rule:nonzero;stroke:none"
             d="m 0,0 h -0.029 c -0.307,-0.932 -0.59,-1.875 -0.885,-2.783 h 1.746 z m 0.947,-6.059 v 0.387 c 0.631,0.11 0.694,0.242 0.547,0.75 -0.117,0.399 -0.295,0.967 -0.484,1.547 h -2.092 c -0.137,-0.447 -0.285,-0.906 -0.41,-1.391 -0.18,-0.652 -0.127,-0.796 0.64,-0.906 v -0.387 h -2.324 v 0.387 c 0.684,0.11 0.821,0.217 1.178,1.258 l 2.156,6.25 0.463,0.148 c 0.674,-2.107 1.336,-4.281 2.02,-6.363 0.345,-1.064 0.482,-1.195 1.156,-1.293 v -0.387 z" /></g><g
           transform="translate(94.0068,34.7764)"
           id="g234"><path
             id="path236"
             style="fill:#2e3d75;fill-opacity:1;fill-rule:nonzero;stroke:none"
             d="m 0,0 c -0.357,0 -0.703,-0.484 -0.703,-1.391 0,-0.871 0.293,-1.547 0.82,-1.56 0.432,0.013 0.715,0.496 0.715,1.404 C 0.832,-0.701 0.549,0 0.012,0 Z m 0.139,-5.271 c -0.506,0 -0.737,-0.061 -0.907,-0.254 -0.189,-0.205 -0.326,-0.436 -0.326,-0.729 0,-0.613 0.557,-1.16 1.369,-1.16 0.871,0 1.356,0.535 1.356,1.211 0,0.422 -0.221,0.699 -0.547,0.81 -0.273,0.094 -0.525,0.122 -0.936,0.122 z M 2.713,0.156 C 2.641,-0.049 2.439,-0.412 2.262,-0.531 l -0.6,0.047 C 1.83,-0.738 1.945,-1.053 1.945,-1.461 1.945,-2.746 0.979,-3.375 0,-3.375 c -0.18,0 -0.357,0.037 -0.525,0.061 -0.094,-0.096 -0.202,-0.254 -0.202,-0.399 0,-0.205 0.18,-0.459 0.665,-0.459 0.357,0 0.683,0.024 1.021,0.024 0.662,0 1.576,-0.229 1.576,-1.463 0,-1.33 -1.336,-2.455 -2.736,-2.455 -1.291,0 -1.912,0.798 -1.912,1.476 0,0.279 0.105,0.485 0.295,0.666 0.242,0.238 0.568,0.483 0.82,0.688 -0.41,0.17 -0.643,0.412 -0.779,0.677 -0.106,0.182 -0.159,0.448 -0.137,0.592 0.494,0.217 0.832,0.545 1.021,0.776 -0.58,0.24 -1,0.834 -1,1.607 0,1.367 1.084,1.994 1.979,1.994 h 0.01 c 0.398,0 0.715,-0.096 1.082,-0.314 0.537,0.023 1.084,0.097 1.484,0.158 z" /></g><g
           transform="translate(99.0342,33.9053)"
           id="g238"><path
             id="path240"
             style="fill:#2e3d75;fill-opacity:1;fill-rule:nonzero;stroke:none"
             d="m 0,0 c 0.359,0.713 0.789,1.281 1.221,1.281 0.4,0 0.674,-0.324 0.674,-0.701 0,-0.351 -0.202,-0.664 -0.454,-0.773 C 1.305,-0.254 1.199,-0.23 1.137,-0.156 0.959,0.012 0.832,0.098 0.664,0.098 0.432,0.098 0.18,-0.133 -0.02,-0.689 v -2.237 c 0,-0.762 0.051,-0.822 0.862,-0.894 v -0.364 h -2.713 v 0.364 c 0.6,0.072 0.695,0.132 0.695,0.894 v 2.6 c 0,0.678 -0.064,0.724 -0.599,0.847 v 0.315 c 0.588,0.096 1.156,0.24 1.755,0.471 L -0.02,0 Z" /></g><g
           transform="translate(101.9072,36.8193)"
           id="g242"><path
             id="path244"
             style="fill:#2e3d75;fill-opacity:1;fill-rule:nonzero;stroke:none"
             d="M 0,0 C 0,0.436 0.314,0.773 0.674,0.773 1.051,0.773 1.346,0.436 1.346,0 1.346,-0.41 1.051,-0.762 0.662,-0.762 0.314,-0.762 0,-0.41 0,0 m -0.525,-7.098 v 0.364 c 0.63,0.084 0.693,0.132 0.693,0.978 v 2.432 c 0,0.773 -0.063,0.822 -0.609,0.918 v 0.34 c 0.599,0.084 1.23,0.24 1.767,0.447 v -4.137 c 0,-0.822 0.051,-0.894 0.703,-0.978 v -0.364 z" /></g><g
           transform="translate(108.5635,30.8584)"
           id="g246"><path
             id="path248"
             style="fill:#2e3d75;fill-opacity:1;fill-rule:nonzero;stroke:none"
             d="m 0,0 c -0.471,-0.75 -1.166,-1.283 -1.799,-1.283 -1.396,0 -2.217,1.246 -2.217,2.553 0,0.906 0.379,1.742 1.061,2.334 0.631,0.544 1.307,0.724 1.705,0.724 h 0.01 c 0.39,0 0.736,-0.131 0.916,-0.303 0.146,-0.13 0.189,-0.254 0.189,-0.408 -0.011,-0.316 -0.263,-0.619 -0.422,-0.619 -0.062,0 -0.125,0.039 -0.22,0.135 -0.389,0.398 -0.737,0.58 -1.063,0.58 -0.515,0 -1.029,-0.533 -1.029,-1.826 0,-1.633 0.998,-2.164 1.502,-2.164 0.443,0 0.758,0.132 1.178,0.554 z" /></g><g
           transform="translate(114.4248,30.0127)"
           id="g250"><path
             id="path252"
             style="fill:#2e3d75;fill-opacity:1;fill-rule:nonzero;stroke:none"
             d="m 0,0 c -0.275,-0.051 -0.568,-0.109 -0.896,-0.193 -0.303,-0.075 -0.62,-0.17 -0.893,-0.244 l -0.074,0.083 V 0.42 C -2.072,0.24 -2.23,0.072 -2.482,-0.098 c -0.307,-0.218 -0.569,-0.339 -0.873,-0.339 -0.823,0 -1.358,0.593 -1.358,1.753 V 3.76 c 0,0.592 -0.072,0.654 -0.336,0.736 L -5.312,4.57 v 0.338 c 0.253,0.012 0.548,0.037 0.884,0.072 0.324,0.038 0.66,0.098 0.903,0.133 -0.02,-0.457 -0.032,-1.051 -0.032,-1.8 V 1.607 c 0,-0.894 0.401,-1.173 0.801,-1.173 0.315,0 0.61,0.109 0.893,0.423 V 3.76 c 0,0.592 -0.074,0.664 -0.379,0.736 L -2.588,4.57 v 0.338 c 0.305,0.012 0.672,0.037 1.01,0.086 0.346,0.024 0.662,0.084 0.873,0.119 V 1.148 c 0,-0.628 0.062,-0.728 0.451,-0.773 L 0,0.35 Z" /></g><g
           transform="translate(114.8779,29.7217)"
           id="g254"><path
             id="path256"
             style="fill:#2e3d75;fill-opacity:1;fill-rule:nonzero;stroke:none"
             d="M 0,0 V 0.363 C 0.641,0.459 0.703,0.52 0.703,1.305 v 5.599 c 0,0.762 -0.053,0.799 -0.662,0.873 V 8.113 C 0.619,8.186 1.355,8.367 1.859,8.537 V 1.305 c 0,-0.809 0.077,-0.869 0.727,-0.942 V 0 Z" /></g><g
           transform="translate(120.1357,29.7217)"
           id="g258"><path
             id="path260"
             style="fill:#2e3d75;fill-opacity:1;fill-rule:nonzero;stroke:none"
             d="m 0,0 c -0.18,-0.096 -0.348,-0.146 -0.43,-0.146 -0.759,0 -1.189,0.449 -1.189,1.5 v 3.421 h -0.684 l -0.052,0.149 0.294,0.396 h 0.442 v 0.883 l 1.008,0.895 0.138,-0.059 V 5.32 H 0.621 C 0.736,5.199 0.717,4.873 0.557,4.775 h -1.03 V 1.752 c 0,-0.955 0.379,-1.086 0.61,-1.086 0.211,0 0.4,0.072 0.568,0.156 L 0.809,0.447 Z" /></g><g
           transform="translate(126.6045,30.0127)"
           id="g262"><path
             id="path264"
             style="fill:#2e3d75;fill-opacity:1;fill-rule:nonzero;stroke:none"
             d="m 0,0 c -0.275,-0.051 -0.568,-0.109 -0.895,-0.193 -0.304,-0.075 -0.619,-0.17 -0.894,-0.244 l -0.072,0.083 V 0.42 C -2.07,0.24 -2.23,0.072 -2.482,-0.098 c -0.305,-0.218 -0.567,-0.339 -0.873,-0.339 -0.821,0 -1.356,0.593 -1.356,1.753 V 3.76 c 0,0.592 -0.074,0.654 -0.338,0.736 L -5.312,4.57 v 0.338 c 0.253,0.012 0.548,0.037 0.884,0.072 0.326,0.038 0.662,0.098 0.905,0.133 -0.022,-0.457 -0.032,-1.051 -0.032,-1.8 V 1.607 c 0,-0.894 0.399,-1.173 0.799,-1.173 0.315,0 0.611,0.109 0.895,0.423 V 3.76 c 0,0.592 -0.075,0.664 -0.379,0.736 L -2.588,4.57 v 0.338 c 0.307,0.012 0.674,0.037 1.01,0.086 0.348,0.024 0.664,0.084 0.873,0.119 V 1.148 c 0,-0.628 0.062,-0.728 0.451,-0.773 L 0,0.35 Z" /></g><g
           transform="translate(129.0342,33.9053)"
           id="g266"><path
             id="path268"
             style="fill:#2e3d75;fill-opacity:1;fill-rule:nonzero;stroke:none"
             d="M 0,0 C 0.357,0.713 0.789,1.281 1.221,1.281 1.619,1.281 1.895,0.957 1.895,0.58 1.895,0.229 1.693,-0.084 1.441,-0.193 1.305,-0.254 1.199,-0.23 1.135,-0.156 0.957,0.012 0.832,0.098 0.664,0.098 c -0.232,0 -0.486,-0.231 -0.685,-0.787 v -2.237 c 0,-0.762 0.054,-0.822 0.863,-0.894 v -0.364 h -2.713 v 0.364 c 0.6,0.072 0.693,0.132 0.693,0.894 v 2.6 c 0,0.678 -0.062,0.724 -0.599,0.847 v 0.315 c 0.59,0.096 1.158,0.24 1.756,0.471 l 0,-1.307 z" /></g><g
           transform="translate(133.4111,34.7139)"
           id="g270"><path
             id="path272"
             style="fill:#2e3d75;fill-opacity:1;fill-rule:nonzero;stroke:none"
             d="m 0,0 c -0.422,0 -0.82,-0.543 -0.916,-1.498 0.484,0 0.947,0.014 1.432,0.037 0.168,0 0.23,0.035 0.24,0.231 C 0.756,-0.604 0.473,0 0.01,0 Z M 1.861,-3.867 C 1.219,-4.895 0.43,-5.139 0.031,-5.139 c -1.355,0 -2.125,1.2 -2.125,2.59 0,0.883 0.305,1.645 0.748,2.153 0.451,0.544 1.03,0.869 1.576,0.869 h 0.01 c 0.938,0 1.662,-0.93 1.662,-1.899 0,-0.24 -0.062,-0.386 -0.283,-0.424 -0.189,-0.035 -1.482,-0.144 -2.588,-0.191 0.033,-1.428 0.727,-2.092 1.473,-2.092 0.41,0 0.81,0.17 1.178,0.555 z" /></g><g
           transform="translate(140.8896,32.624)"
           id="g274"><path
             id="path276"
             style="fill:#2e3d75;fill-opacity:1;fill-rule:nonzero;stroke:none"
             d="m 0,0 c -0.211,-0.133 -0.494,-0.303 -0.715,-0.436 -0.357,-0.195 -0.547,-0.423 -0.547,-0.845 0,-0.655 0.399,-0.92 0.672,-0.92 0.19,0 0.401,0.109 0.59,0.277 z m 0.883,-3.049 c -0.242,0 -0.451,0.11 -0.59,0.244 -0.135,0.159 -0.209,0.315 -0.262,0.483 -0.41,-0.315 -0.904,-0.727 -1.146,-0.727 -0.842,0 -1.367,0.776 -1.367,1.526 0,0.617 0.261,0.943 0.82,1.173 0.621,0.254 1.42,0.555 1.662,0.797 V 0.748 C 0,1.547 -0.295,1.994 -0.736,1.994 -0.895,1.994 -1.031,1.922 -1.125,1.777 -1.252,1.607 -1.346,1.33 -1.432,0.955 -1.494,0.678 -1.631,0.592 -1.83,0.592 c -0.242,0 -0.58,0.267 -0.58,0.582 0,0.193 0.127,0.347 0.359,0.529 0.358,0.303 1.082,0.729 1.682,0.86 0.39,0 0.705,-0.11 0.967,-0.338 C 1.02,1.852 1.125,1.33 1.125,0.678 v -2.094 c 0,-0.557 0.168,-0.713 0.346,-0.713 0.129,0 0.254,0.049 0.359,0.109 l 0.115,-0.363 z" /></g><g
           transform="translate(146.21,29.7217)"
           id="g278"><path
             id="path280"
             style="fill:#2e3d75;fill-opacity:1;fill-rule:nonzero;stroke:none"
             d="m 0,0 v 0.363 c 0.506,0.073 0.57,0.133 0.57,0.991 v 2.033 c 0,0.857 -0.326,1.218 -0.81,1.218 -0.326,0 -0.631,-0.193 -0.916,-0.457 v -2.89 c 0,-0.774 0.064,-0.822 0.558,-0.895 V 0 h -2.439 v 0.363 c 0.674,0.096 0.724,0.133 0.724,0.93 v 2.504 c 0,0.75 -0.05,0.785 -0.587,0.908 v 0.326 c 0.556,0.084 1.175,0.254 1.744,0.473 V 4.582 c 0.211,0.172 0.422,0.354 0.674,0.533 0.304,0.229 0.537,0.35 0.841,0.35 0.842,0 1.358,-0.701 1.358,-1.899 V 1.27 c 0,-0.786 0.06,-0.823 0.64,-0.907 L 2.357,0 Z" /></g><g
           transform="translate(152.5654,34.0752)"
           id="g282"><path
             id="path284"
             style="fill:#2e3d75;fill-opacity:1;fill-rule:nonzero;stroke:none"
             d="m 0,0 c -0.199,0.422 -0.537,0.627 -0.885,0.627 -0.336,0 -1.166,-0.375 -1.166,-2.174 0,-1.476 0.756,-2.096 1.315,-2.096 0.252,0 0.494,0.1 0.736,0.282 z M 1.902,-4.039 C 1.66,-4.088 0.746,-4.232 0,-4.512 v 0.739 L -0.643,-4.232 C -0.957,-4.449 -1.158,-4.5 -1.273,-4.5 c -0.883,0 -2.082,0.857 -2.082,2.625 0,1.656 1.261,2.986 2.818,2.986 0.105,0 0.295,-0.023 0.537,-0.086 L 0,2.576 C 0,3.277 -0.062,3.324 -0.748,3.41 v 0.35 c 0.631,0.086 1.42,0.254 1.904,0.424 v -7.061 c 0,-0.666 0.063,-0.717 0.485,-0.775 l 0.261,-0.036 z" /></g><g
           transform="translate(164.6709,37.1943)"
           id="g286"><path
             id="path288"
             style="fill:#2e3d75;fill-opacity:1;fill-rule:nonzero;stroke:none"
             d="m 0,0 c -0.568,-0.035 -0.799,-0.205 -0.854,-0.75 -0.039,-0.361 -0.082,-0.932 -0.082,-2.018 v -4.826 h -0.441 l -4.418,6.143 h -0.019 v -2.842 c 0,-1.076 0.041,-1.619 0.072,-1.982 0.051,-0.569 0.252,-0.762 1.01,-0.811 v -0.387 h -2.545 v 0.387 c 0.59,0.049 0.841,0.229 0.894,0.774 0.031,0.4 0.084,0.943 0.084,2.019 v 2.574 c 0,0.824 -0.01,0.992 -0.211,1.272 -0.209,0.302 -0.431,0.4 -0.904,0.447 v 0.385 h 1.809 l 4.156,-5.572 h 0.029 v 2.419 c 0,1.086 -0.051,1.657 -0.072,2.004 C -1.557,-0.24 -1.777,-0.047 -2.535,0 V 0.385 H 0 Z" /></g><g
           transform="translate(167.5654,32.624)"
           id="g290"><path
             id="path292"
             style="fill:#2e3d75;fill-opacity:1;fill-rule:nonzero;stroke:none"
             d="m 0,0 c -0.211,-0.133 -0.494,-0.303 -0.715,-0.436 -0.359,-0.195 -0.547,-0.423 -0.547,-0.845 0,-0.655 0.399,-0.92 0.672,-0.92 0.19,0 0.403,0.109 0.59,0.277 z m 0.883,-3.049 c -0.24,0 -0.451,0.11 -0.588,0.244 -0.137,0.159 -0.211,0.315 -0.264,0.483 -0.41,-0.315 -0.904,-0.727 -1.144,-0.727 -0.844,0 -1.369,0.776 -1.369,1.526 0,0.617 0.263,0.943 0.822,1.173 0.617,0.254 1.418,0.555 1.66,0.797 L 0,0.748 C 0,1.547 -0.295,1.994 -0.736,1.994 -0.895,1.994 -1.031,1.922 -1.125,1.777 -1.252,1.607 -1.346,1.33 -1.43,0.955 -1.494,0.678 -1.631,0.592 -1.83,0.592 c -0.242,0 -0.578,0.267 -0.578,0.582 0,0.193 0.127,0.347 0.357,0.529 0.358,0.303 1.082,0.729 1.682,0.86 0.39,0 0.705,-0.11 0.969,-0.338 C 1.02,1.852 1.125,1.33 1.125,0.678 v -2.094 c 0,-0.557 0.168,-0.713 0.346,-0.713 0.127,0 0.254,0.049 0.359,0.109 l 0.115,-0.363 z" /></g><g
           transform="translate(172.0146,29.7217)"
           id="g294"><path
             id="path296"
             style="fill:#2e3d75;fill-opacity:1;fill-rule:nonzero;stroke:none"
             d="m 0,0 c -0.18,-0.096 -0.348,-0.146 -0.432,-0.146 -0.757,0 -1.189,0.449 -1.189,1.5 v 3.421 h -0.682 l -0.052,0.149 0.294,0.396 h 0.44 v 0.883 l 1.012,0.895 0.136,-0.059 V 5.32 H 0.621 C 0.734,5.199 0.715,4.873 0.557,4.775 h -1.03 V 1.752 c 0,-0.955 0.379,-1.086 0.61,-1.086 0.211,0 0.398,0.072 0.566,0.156 L 0.809,0.447 Z" /></g><g
           transform="translate(178.4834,30.0127)"
           id="g298"><path
             id="path300"
             style="fill:#2e3d75;fill-opacity:1;fill-rule:nonzero;stroke:none"
             d="m 0,0 c -0.275,-0.051 -0.568,-0.109 -0.895,-0.193 -0.304,-0.075 -0.621,-0.17 -0.894,-0.244 l -0.072,0.083 V 0.42 C -2.072,0.24 -2.23,0.072 -2.482,-0.098 c -0.305,-0.218 -0.569,-0.339 -0.873,-0.339 -0.821,0 -1.358,0.593 -1.358,1.753 V 3.76 c 0,0.592 -0.074,0.654 -0.334,0.736 L -5.311,4.57 v 0.338 c 0.252,0.012 0.545,0.037 0.883,0.072 0.326,0.038 0.662,0.098 0.905,0.133 -0.022,-0.457 -0.032,-1.051 -0.032,-1.8 V 1.607 c 0,-0.894 0.401,-1.173 0.799,-1.173 0.315,0 0.61,0.109 0.895,0.423 V 3.76 c 0,0.592 -0.075,0.664 -0.381,0.736 L -2.588,4.57 v 0.338 c 0.305,0.012 0.674,0.037 1.01,0.086 0.348,0.024 0.662,0.084 0.873,0.119 V 1.148 c 0,-0.628 0.062,-0.728 0.451,-0.773 L 0,0.35 Z" /></g><g
           transform="translate(180.9131,33.9053)"
           id="g302"><path
             id="path304"
             style="fill:#2e3d75;fill-opacity:1;fill-rule:nonzero;stroke:none"
             d="m 0,0 c 0.357,0.713 0.789,1.281 1.221,1.281 0.4,0 0.672,-0.324 0.672,-0.701 0,-0.351 -0.2,-0.664 -0.452,-0.773 C 1.305,-0.254 1.199,-0.23 1.137,-0.156 0.957,0.012 0.832,0.098 0.664,0.098 0.432,0.098 0.18,-0.133 -0.02,-0.689 v -2.237 c 0,-0.762 0.053,-0.822 0.862,-0.894 v -0.364 h -2.713 v 0.364 c 0.6,0.072 0.693,0.132 0.693,0.894 v 2.6 c 0,0.678 -0.062,0.724 -0.599,0.847 v 0.315 c 0.59,0.096 1.156,0.24 1.757,0.471 L -0.02,0 Z" /></g><g
           transform="translate(185.8369,32.624)"
           id="g306"><path
             id="path308"
             style="fill:#2e3d75;fill-opacity:1;fill-rule:nonzero;stroke:none"
             d="m 0,0 c -0.211,-0.133 -0.494,-0.303 -0.717,-0.436 -0.355,-0.195 -0.545,-0.423 -0.545,-0.845 0,-0.655 0.399,-0.92 0.672,-0.92 0.19,0 0.401,0.109 0.59,0.277 z m 0.883,-3.049 c -0.242,0 -0.453,0.11 -0.588,0.244 -0.137,0.159 -0.211,0.315 -0.266,0.483 -0.408,-0.315 -0.902,-0.727 -1.144,-0.727 -0.84,0 -1.367,0.776 -1.367,1.526 0,0.617 0.263,0.943 0.82,1.173 0.619,0.254 1.42,0.555 1.662,0.797 V 0.748 C 0,1.547 -0.295,1.994 -0.738,1.994 -0.895,1.994 -1.031,1.922 -1.127,1.777 -1.252,1.607 -1.348,1.33 -1.432,0.955 -1.494,0.678 -1.631,0.592 -1.83,0.592 c -0.242,0 -0.58,0.267 -0.58,0.582 0,0.193 0.127,0.347 0.359,0.529 0.358,0.303 1.082,0.729 1.68,0.86 0.391,0 0.707,-0.11 0.969,-0.338 C 1.02,1.852 1.123,1.33 1.123,0.678 v -2.094 c 0,-0.557 0.17,-0.713 0.348,-0.713 0.127,0 0.252,0.049 0.357,0.109 l 0.115,-0.363 z" /></g><g
           transform="translate(188.0771,29.7217)"
           id="g310"><path
             id="path312"
             style="fill:#2e3d75;fill-opacity:1;fill-rule:nonzero;stroke:none"
             d="M 0,0 V 0.363 C 0.643,0.459 0.705,0.52 0.705,1.305 v 5.599 c 0,0.762 -0.053,0.799 -0.662,0.873 V 8.113 C 0.621,8.186 1.357,8.367 1.861,8.537 V 1.305 c 0,-0.809 0.075,-0.869 0.727,-0.942 V 0 Z" /></g><g
           transform="translate(196.165,33.5654)"
           id="g314"><path
             id="path316"
             style="fill:#2e3d75;fill-opacity:1;fill-rule:nonzero;stroke:none"
             d="m 0,0 c 0.484,0 0.832,0.1 1.074,0.33 0.367,0.35 0.524,0.832 0.524,1.461 0,1.295 -0.672,1.777 -1.344,1.777 -0.274,0 -0.432,-0.06 -0.506,-0.121 C -0.324,3.377 -0.346,3.242 -0.346,2.963 V 0 Z m 3.922,-3.951 c -0.082,0 -0.209,0.012 -0.325,0.012 -1.136,0.058 -1.556,0.373 -1.999,1.148 -0.305,0.531 -0.629,1.219 -0.934,1.836 -0.168,0.363 -0.357,0.51 -0.768,0.51 h -0.242 v -1.826 c 0,-0.993 0.094,-1.1 0.903,-1.186 v -0.387 h -3.028 v 0.387 c 0.811,0.086 0.926,0.182 0.926,1.186 v 4.728 c 0,0.99 -0.094,1.088 -0.883,1.16 v 0.397 h 2.826 c 0.866,0 1.391,-0.118 1.811,-0.432 0.42,-0.328 0.704,-0.859 0.704,-1.609 0,-1.053 -0.599,-1.643 -1.325,-1.996 0.17,-0.375 0.568,-1.184 0.883,-1.729 0.379,-0.664 0.6,-1.027 0.833,-1.295 0.24,-0.312 0.44,-0.459 0.682,-0.541 z" /></g><g
           transform="translate(202.6143,34.7139)"
           id="g318"><path
             id="path320"
             style="fill:#2e3d75;fill-opacity:1;fill-rule:nonzero;stroke:none"
             d="m 0,0 c -0.422,0 -0.82,-0.543 -0.914,-1.498 0.482,0 0.945,0.014 1.428,0.037 0.17,0 0.232,0.035 0.242,0.231 C 0.756,-0.604 0.473,0 0.01,0 Z m 1.861,-3.867 c -0.642,-1.028 -1.429,-1.272 -1.83,-1.272 -1.355,0 -2.123,1.2 -2.123,2.59 0,0.883 0.305,1.645 0.746,2.153 0.451,0.544 1.03,0.869 1.578,0.869 h 0.01 c 0.936,0 1.66,-0.93 1.66,-1.899 0,-0.24 -0.062,-0.386 -0.283,-0.424 -0.189,-0.035 -1.482,-0.144 -2.586,-0.191 0.031,-1.428 0.725,-2.092 1.471,-2.092 0.41,0 0.81,0.17 1.178,0.555 z" /></g><g
           transform="translate(208.0205,33.5303)"
           id="g322"><path
             id="path324"
             style="fill:#2e3d75;fill-opacity:1;fill-rule:nonzero;stroke:none"
             d="m 0,0 c -0.254,0.738 -0.6,1.223 -1.104,1.223 -0.328,0 -0.589,-0.303 -0.589,-0.727 0,-0.422 0.304,-0.711 0.82,-0.967 0.83,-0.412 1.389,-0.836 1.389,-1.74 0,-1.162 -0.959,-1.744 -1.83,-1.744 -0.547,0 -1.082,0.232 -1.284,0.412 -0.074,0.182 -0.168,1.027 -0.168,1.561 l 0.295,0.037 c 0.221,-0.776 0.703,-1.561 1.336,-1.561 0.356,0 0.641,0.301 0.641,0.727 0,0.41 -0.211,0.699 -0.809,1.037 -0.539,0.291 -1.338,0.74 -1.338,1.742 0,0.906 0.655,1.656 1.717,1.656 C -0.463,1.67 -0.18,1.561 0.053,1.451 0.158,1.172 0.271,0.365 0.305,0.098 Z" /></g><g
           transform="translate(211.6182,34.7529)"
           id="g326"><path
             id="path328"
             style="fill:#2e3d75;fill-opacity:1;fill-rule:nonzero;stroke:none"
             d="m 0,0 c -0.504,0 -0.979,-0.689 -0.979,-2.068 0,-1.5 0.475,-2.661 1.209,-2.661 0.495,0 0.957,0.387 0.957,2.129 0,1.582 -0.419,2.6 -1.177,2.6 z m 0.156,0.434 c 1.399,0 2.346,-1.246 2.346,-2.707 0,-1.948 -1.229,-2.905 -2.385,-2.905 -1.578,0 -2.41,1.358 -2.41,2.686 0,1.971 1.348,2.926 2.439,2.926 z" /></g><g
           transform="translate(220.0732,30.0127)"
           id="g330"><path
             id="path332"
             style="fill:#2e3d75;fill-opacity:1;fill-rule:nonzero;stroke:none"
             d="m 0,0 c -0.271,-0.051 -0.568,-0.109 -0.893,-0.193 -0.304,-0.075 -0.621,-0.17 -0.892,-0.244 l -0.074,0.083 V 0.42 c -0.211,-0.18 -0.37,-0.348 -0.623,-0.518 -0.305,-0.218 -0.567,-0.339 -0.872,-0.339 -0.82,0 -1.355,0.593 -1.355,1.753 V 3.76 c 0,0.592 -0.074,0.654 -0.338,0.736 L -5.309,4.57 V 4.908 C -5.057,4.92 -4.764,4.945 -4.428,4.98 -4.1,5.018 -3.764,5.078 -3.52,5.113 -3.543,4.656 -3.553,4.062 -3.553,3.313 V 1.607 c 0,-0.894 0.399,-1.173 0.799,-1.173 0.316,0 0.611,0.109 0.895,0.423 V 3.76 c 0,0.592 -0.077,0.664 -0.379,0.736 L -2.586,4.57 v 0.338 c 0.305,0.012 0.672,0.037 1.01,0.086 0.346,0.024 0.662,0.084 0.873,0.119 V 1.148 c 0,-0.628 0.062,-0.728 0.451,-0.773 L 0,0.35 Z" /></g><g
           transform="translate(222.5049,33.9053)"
           id="g334"><path
             id="path336"
             style="fill:#2e3d75;fill-opacity:1;fill-rule:nonzero;stroke:none"
             d="m 0,0 c 0.357,0.713 0.789,1.281 1.221,1.281 0.4,0 0.672,-0.324 0.672,-0.701 0,-0.351 -0.2,-0.664 -0.454,-0.773 -0.136,-0.061 -0.24,-0.037 -0.302,0.037 -0.18,0.168 -0.305,0.254 -0.475,0.254 -0.23,0 -0.482,-0.231 -0.683,-0.787 v -2.237 c 0,-0.762 0.054,-0.822 0.863,-0.894 v -0.364 h -2.713 v 0.364 c 0.598,0.072 0.693,0.132 0.693,0.894 v 2.6 c 0,0.678 -0.064,0.724 -0.599,0.847 v 0.315 c 0.588,0.096 1.158,0.24 1.756,0.471 l 0,-1.307 z" /></g><g
           transform="translate(228.7939,30.8584)"
           id="g338"><path
             id="path340"
             style="fill:#2e3d75;fill-opacity:1;fill-rule:nonzero;stroke:none"
             d="m 0,0 c -0.473,-0.75 -1.166,-1.283 -1.797,-1.283 -1.4,0 -2.221,1.246 -2.221,2.553 0,0.906 0.379,1.742 1.063,2.334 0.631,0.544 1.305,0.724 1.703,0.724 h 0.012 c 0.39,0 0.736,-0.131 0.914,-0.303 0.146,-0.13 0.189,-0.254 0.189,-0.408 -0.009,-0.316 -0.263,-0.619 -0.42,-0.619 -0.062,0 -0.127,0.039 -0.22,0.135 -0.389,0.398 -0.737,0.58 -1.063,0.58 -0.514,0 -1.031,-0.533 -1.031,-1.826 0,-1.633 1,-2.164 1.504,-2.164 0.443,0 0.758,0.132 1.178,0.554 z" /></g><g
           transform="translate(231.415,34.7139)"
           id="g342"><path
             id="path344"
             style="fill:#2e3d75;fill-opacity:1;fill-rule:nonzero;stroke:none"
             d="m 0,0 c -0.422,0 -0.822,-0.543 -0.916,-1.498 0.484,0 0.947,0.014 1.43,0.037 0.168,0 0.232,0.035 0.242,0.231 C 0.756,-0.604 0.471,0 0.01,0 Z M 1.859,-3.867 C 1.221,-4.895 0.432,-5.139 0.031,-5.139 c -1.357,0 -2.125,1.2 -2.125,2.59 0,0.883 0.307,1.645 0.746,2.153 0.453,0.544 1.032,0.869 1.578,0.869 h 0.012 c 0.936,0 1.66,-0.93 1.66,-1.899 0,-0.24 -0.062,-0.386 -0.283,-0.424 -0.189,-0.035 -1.482,-0.144 -2.588,-0.191 0.033,-1.428 0.727,-2.092 1.473,-2.092 0.408,0 0.81,0.17 1.178,0.555 z" /></g><g
           transform="translate(236.8213,33.5303)"
           id="g346"><path
             id="path348"
             style="fill:#2e3d75;fill-opacity:1;fill-rule:nonzero;stroke:none"
             d="m 0,0 c -0.254,0.738 -0.602,1.223 -1.104,1.223 -0.328,0 -0.589,-0.303 -0.589,-0.727 0,-0.422 0.304,-0.711 0.82,-0.967 0.83,-0.412 1.387,-0.836 1.387,-1.74 0,-1.162 -0.955,-1.744 -1.828,-1.744 -0.549,0 -1.084,0.232 -1.286,0.412 -0.072,0.182 -0.166,1.027 -0.166,1.561 l 0.295,0.037 c 0.221,-0.776 0.703,-1.561 1.336,-1.561 0.356,0 0.639,0.301 0.639,0.727 0,0.41 -0.209,0.699 -0.809,1.037 -0.537,0.291 -1.334,0.74 -1.334,1.742 0,0.906 0.651,1.656 1.713,1.656 C -0.463,1.67 -0.18,1.561 0.053,1.451 0.156,1.172 0.271,0.365 0.305,0.098 Z" /></g><path
           id="path350"
           style="fill:#eaa420;fill-opacity:1;fill-rule:nonzero;stroke:none"
           d="m 78.296,29.751 h -5.221 v 26.496 h 5.221 z" /></g></g></g></svg>